<svg width="180" height="18" viewBox="0 0 180 18" fill="none" xmlns="http://www.w3.org/2000/svg">
<g clip-path="url(#clip0_7_21)">
<path d="M40.4536 10.322C41.0918 11.135 41.4142 12.0618 41.4142 13.1024C41.4142 14.6081 40.8813 15.7984 39.8187 16.6797C38.7561 17.561 37.2725 18 35.371 18H26.8901V0H35.0848C36.9336 0 38.3811 0.419512 39.4272 1.25528C40.4734 2.09431 40.9964 3.22927 40.9964 4.66341C40.9964 5.72358 40.7135 6.60488 40.1543 7.30407C39.5917 8.0065 38.845 8.49106 37.9107 8.76423C38.9667 8.98537 39.8121 9.50244 40.4536 10.3154V10.322ZM31.3247 7.28455H34.2295C34.9565 7.28455 35.5125 7.1252 35.9007 6.80976C36.2888 6.49431 36.4829 6.02927 36.4829 5.41138C36.4829 4.7935 36.2888 4.3252 35.9007 4C35.5125 3.6748 34.9532 3.5122 34.2295 3.5122H31.3247V7.2813V7.28455ZM36.3185 13.9642C36.7231 13.6325 36.9271 13.148 36.9271 12.5171C36.9271 11.8862 36.7165 11.3886 36.2921 11.0309C35.8678 10.6732 35.2855 10.4911 34.542 10.4911H31.3247V14.465H34.5914C35.3348 14.465 35.9105 14.2992 36.3152 13.9642H36.3185Z" fill="#2B2D42"/>
<path d="M47.7996 16.8488C46.408 16.0813 45.3027 15.0082 44.4835 13.6326C43.6644 12.257 43.2565 10.709 43.2565 8.98866C43.2565 7.26834 43.6644 5.72687 44.4835 4.35777C45.3027 2.98866 46.408 1.92199 47.7996 1.15452C49.1911 0.387036 50.7241 0.0032959 52.3953 0.0032959C54.0665 0.0032959 55.5995 0.387036 56.991 1.15452C58.3826 1.92199 59.4813 2.98866 60.284 4.35777C61.0867 5.72687 61.4881 7.26834 61.4881 8.98866C61.4881 10.709 61.0834 12.2537 60.2742 13.6326C59.4649 15.0082 58.3661 16.0813 56.9812 16.8488C55.5962 17.6163 54.0698 18 52.3986 18C50.7274 18 49.1944 17.6163 47.8029 16.8488H47.7996ZM55.8001 12.6927C56.6522 11.7594 57.0798 10.5236 57.0798 8.98866C57.0798 7.4537 56.6522 6.19842 55.8001 5.27159C54.9481 4.34476 53.8132 3.88297 52.3953 3.88297C50.9774 3.88297 49.8162 4.34151 48.9641 5.25858C48.1121 6.17565 47.6844 7.42118 47.6844 8.98866C47.6844 10.5561 48.1121 11.7789 48.9641 12.7057C49.8162 13.6326 50.961 14.0944 52.3953 14.0944C53.8296 14.0944 54.9481 13.6261 55.8001 12.6927Z" fill="#2B2D42"/>
<path d="M68.0444 16.8488C66.6529 16.0813 65.5475 15.0082 64.7284 13.6326C63.9093 12.257 63.5013 10.709 63.5013 8.98866C63.5013 7.26834 63.9093 5.72687 64.7284 4.35777C65.5475 2.98866 66.6529 1.92199 68.0444 1.15452C69.436 0.387036 70.969 0.0032959 72.6402 0.0032959C74.3113 0.0032959 75.8444 0.387036 77.2359 1.15452C78.6274 1.92199 79.7262 2.98866 80.5289 4.35777C81.3316 5.72687 81.7329 7.26834 81.7329 8.98866C81.7329 10.709 81.3283 12.2537 80.519 13.6326C79.7098 15.0082 78.611 16.0813 77.226 16.8488C75.8411 17.6163 74.3146 18 72.6435 18C70.9723 18 69.4393 17.6163 68.0477 16.8488H68.0444ZM76.045 12.6927C76.8971 11.7594 77.3247 10.5236 77.3247 8.98866C77.3247 7.4537 76.8971 6.19842 76.045 5.27159C75.193 4.34476 74.058 3.88297 72.6402 3.88297C71.2223 3.88297 70.061 4.34151 69.209 5.25858C68.357 6.17565 67.9293 7.42118 67.9293 8.98866C67.9293 10.5561 68.357 11.7789 69.209 12.7057C70.061 13.6326 71.2059 14.0944 72.6402 14.0944C74.0745 14.0944 75.193 13.6261 76.045 12.6927Z" fill="#2B2D42"/>
<path d="M104.116 0V18H99.6816V7.2065L95.609 18H92.0298L87.9308 7.18049V18H83.4962V0H88.7335L93.8424 12.4585L98.9053 0H104.119H104.116Z" fill="#2B2D42"/>
<path d="M120.923 10.322C121.562 11.135 121.884 12.0618 121.884 13.1024C121.884 14.6081 121.351 15.7984 120.288 16.6797C119.226 17.561 117.742 18 115.841 18H107.36V0H115.555C117.403 0 118.851 0.419512 119.897 1.25528C120.943 2.09431 121.466 3.22927 121.466 4.66341C121.466 5.72358 121.183 6.60488 120.624 7.30407C120.061 8.0065 119.315 8.49106 118.38 8.76423C119.436 8.98537 120.282 9.50244 120.923 10.3154V10.322ZM111.794 7.28455H114.699C115.426 7.28455 115.982 7.1252 116.374 6.80976C116.762 6.49431 116.956 6.02927 116.956 5.41138C116.956 4.7935 116.762 4.3252 116.374 4C115.985 3.6748 115.426 3.5122 114.699 3.5122H111.794V7.2813V7.28455ZM116.788 13.9642C117.193 13.6325 117.397 13.148 117.397 12.5171C117.397 11.8862 117.186 11.3886 116.762 11.0309C116.337 10.6732 115.755 10.4911 115.012 10.4911H111.794V14.465H115.061C115.805 14.465 116.38 14.2992 116.785 13.9642H116.788Z" fill="#2B2D42"/>
<path d="M128.269 16.8488C126.878 16.0813 125.772 15.0082 124.953 13.6326C124.134 12.257 123.726 10.709 123.726 8.98866C123.726 7.26834 124.134 5.72687 124.953 4.35777C125.772 2.98866 126.878 1.92199 128.269 1.15452C129.661 0.387036 131.194 0.0032959 132.865 0.0032959C134.536 0.0032959 136.069 0.387036 137.461 1.15452C138.852 1.92199 139.951 2.98866 140.754 4.35777C141.556 5.72687 141.958 7.26834 141.958 8.98866C141.958 10.709 141.553 12.2537 140.744 13.6326C139.935 15.0082 138.836 16.0813 137.451 16.8488C136.066 17.6163 134.539 18 132.868 18C131.197 18 129.664 17.6163 128.273 16.8488H128.269ZM136.27 12.6927C137.122 11.7594 137.55 10.5236 137.55 8.98866C137.55 7.4537 137.122 6.19842 136.27 5.27159C135.418 4.34476 134.283 3.88297 132.865 3.88297C131.447 3.88297 130.286 4.34151 129.434 5.25858C128.582 6.17565 128.154 7.42118 128.154 8.98866C128.154 10.5561 128.582 11.7789 129.434 12.7057C130.286 13.6326 131.431 14.0944 132.865 14.0944C134.299 14.0944 135.418 13.6261 136.27 12.6927Z" fill="#2B2D42"/>
<path d="M148.514 16.8488C147.123 16.0813 146.017 15.0082 145.198 13.6326C144.379 12.257 143.971 10.709 143.971 8.98866C143.971 7.26834 144.379 5.72687 145.198 4.35777C146.017 2.98866 147.123 1.92199 148.514 1.15452C149.906 0.387036 151.439 0.0032959 153.11 0.0032959C154.781 0.0032959 156.314 0.387036 157.706 1.15452C159.097 1.92199 160.196 2.98866 160.999 4.35777C161.801 5.72687 162.203 7.26834 162.203 8.98866C162.203 10.709 161.798 12.2537 160.989 13.6326C160.179 15.0082 159.081 16.0813 157.696 16.8488C156.311 17.6163 154.784 18 153.113 18C151.442 18 149.909 17.6163 148.517 16.8488H148.514ZM156.515 12.6927C157.367 11.7594 157.794 10.5236 157.794 8.98866C157.794 7.4537 157.367 6.19842 156.515 5.27159C155.663 4.34476 154.528 3.88297 153.11 3.88297C151.692 3.88297 150.531 4.34151 149.679 5.25858C148.827 6.17565 148.399 7.42118 148.399 8.98866C148.399 10.5561 148.823 11.7789 149.679 12.7057C150.531 13.6326 151.676 14.0944 153.11 14.0944C154.544 14.0944 155.663 13.6261 156.515 12.6927Z" fill="#2B2D42"/>
<path d="M174.579 18L168.456 10.052V18H164.022V0H168.456V7.89919L174.526 0H179.74L172.687 8.81951L180 17.9967H174.579V18Z" fill="#2B2D42"/>
<path d="M0 0H0.467139C5.36223 0 9.33621 3.92846 9.33621 8.76748V17.9967H8.86907C3.97397 18 0 14.0715 0 9.22927V0Z" fill="#EF233C"/>
<path d="M10.1553 10.5366V5.87967C10.1553 2.63089 12.8167 0 16.1031 0V4.65691C16.1031 7.90569 13.4418 10.5366 10.1553 10.5366V10.5366Z" fill="#EF233C"/>
<path d="M10.1553 11.4504H17.3072C20.7811 11.4504 23.6004 14.2374 23.6004 17.6716V17.9968H16.4486C12.9746 17.9968 10.1553 15.2098 10.1553 11.7756V11.4504V11.4504Z" fill="#EF233C"/>
</g>
<defs>
<clipPath id="clip0_7_21">
<rect width="180" height="18" fill="white"/>
</clipPath>
</defs>
</svg>
